<svg width="152" height="142" viewBox="0 0 152 142" fill="none" xmlns="http://www.w3.org/2000/svg">
<path d="M74.9948 42.0258C74.9948 53.1636 70.5704 63.8451 62.6948 71.7207C54.8193 79.5962 44.1377 84.0207 33 84.0207V42.0258H74.9948Z" fill="#F9B24E"/>
<path d="M117 42.0258C117 47.5407 115.914 53.0015 113.803 58.0966C111.693 63.1916 108.6 67.8211 104.7 71.7207C100.8 75.6203 96.1709 78.7136 91.0759 80.824C85.9808 82.9344 80.52 84.0207 75.0051 84.0207V42.0258H117Z" fill="#A8BBC6"/>
<path d="M74.9948 41.9948C74.9934 36.4788 76.0791 31.0165 78.1897 25.9201C80.3003 20.8238 83.3945 16.1933 87.2955 12.2933C91.1964 8.39334 95.8276 5.30028 100.924 3.19093C106.021 1.08158 111.484 -0.00271036 117 5.0877e-06V41.9948H74.9948Z" fill="#45525B"/>
<path d="M33 41.9948C32.9986 36.4796 34.0839 31.0182 36.1939 25.9225C38.3038 20.8268 41.3971 16.1968 45.2969 12.297C49.1968 8.39711 53.8268 5.30385 58.9225 3.19389C64.0182 1.08394 69.4796 -0.00135632 74.9948 1.27209e-06V41.9948H33Z" fill="#FE7E02"/>
<path d="M2.772 132V106.872H8.244V127.14H17.82V132H2.772ZM35.6825 132C34.7225 132 33.9185 131.7 33.2705 131.1C32.6465 130.5 32.2505 129.696 32.0825 128.688H31.8665C31.5785 129.912 30.9425 130.848 29.9585 131.496C28.9745 132.12 27.7625 132.432 26.3225 132.432C24.4265 132.432 22.9745 131.928 21.9665 130.92C20.9585 129.912 20.4545 128.58 20.4545 126.924C20.4545 124.932 21.1745 123.456 22.6145 122.496C24.0785 121.512 26.0585 121.02 28.5545 121.02H31.5425V119.832C31.5425 118.92 31.3025 118.2 30.8225 117.672C30.3425 117.12 29.5385 116.844 28.4105 116.844C27.3545 116.844 26.5145 117.072 25.8905 117.528C25.2665 117.984 24.7505 118.5 24.3425 119.076L21.1745 116.268C21.9425 115.14 22.9025 114.264 24.0545 113.64C25.2305 112.992 26.8145 112.668 28.8065 112.668C31.4945 112.668 33.5105 113.256 34.8545 114.432C36.1985 115.608 36.8705 117.324 36.8705 119.58V127.86H38.6345V132H35.6825ZM28.3025 128.724C29.1905 128.724 29.9465 128.532 30.5705 128.148C31.2185 127.764 31.5425 127.14 31.5425 126.276V124.044H28.9505C26.8625 124.044 25.8185 124.752 25.8185 126.168V126.708C25.8185 127.404 26.0345 127.92 26.4665 128.256C26.8985 128.568 27.5105 128.724 28.3025 128.724ZM42.2106 105.36H47.5386V116.268H47.7186C47.9826 115.212 48.5826 114.348 49.5186 113.676C50.4786 113.004 51.5706 112.668 52.7946 112.668C55.1946 112.668 57.0066 113.508 58.2306 115.188C59.4546 116.868 60.0666 119.316 60.0666 122.532C60.0666 125.748 59.4546 128.208 58.2306 129.912C57.0066 131.592 55.1946 132.432 52.7946 132.432C52.1706 132.432 51.5826 132.336 51.0306 132.144C50.4786 131.976 49.9746 131.736 49.5186 131.424C49.0866 131.088 48.7146 130.704 48.4026 130.272C48.0906 129.816 47.8626 129.336 47.7186 128.832H47.5386V132H42.2106V105.36ZM51.0306 128.112C52.0386 128.112 52.8666 127.764 53.5146 127.068C54.1866 126.348 54.5226 125.388 54.5226 124.188V120.912C54.5226 119.712 54.1866 118.764 53.5146 118.068C52.8666 117.348 52.0386 116.988 51.0306 116.988C50.0226 116.988 49.1826 117.24 48.5106 117.744C47.8626 118.224 47.5386 118.896 47.5386 119.76V125.34C47.5386 126.204 47.8626 126.888 48.5106 127.392C49.1826 127.872 50.0226 128.112 51.0306 128.112ZM64.4009 132V106.872H81.5009V111.732H69.8729V116.88H79.8449V121.704H69.8729V127.14H81.5009V132H64.4009ZM97.2205 128.832H97.0405C96.8965 129.336 96.6685 129.816 96.3565 130.272C96.0445 130.704 95.6605 131.088 95.2045 131.424C94.7725 131.736 94.2685 131.976 93.6925 132.144C93.1405 132.336 92.5645 132.432 91.9645 132.432C89.5645 132.432 87.7525 131.592 86.5285 129.912C85.3045 128.208 84.6925 125.748 84.6925 122.532C84.6925 119.316 85.3045 116.868 86.5285 115.188C87.7525 113.508 89.5645 112.668 91.9645 112.668C93.1885 112.668 94.2685 113.004 95.2045 113.676C96.1645 114.348 96.7765 115.212 97.0405 116.268H97.2205V105.36H102.549V132H97.2205V128.832ZM93.7285 128.112C94.7365 128.112 95.5645 127.872 96.2125 127.392C96.8845 126.888 97.2205 126.204 97.2205 125.34V119.76C97.2205 118.896 96.8845 118.224 96.2125 117.744C95.5645 117.24 94.7365 116.988 93.7285 116.988C92.7205 116.988 91.8805 117.348 91.2085 118.068C90.5605 118.764 90.2365 119.712 90.2365 120.912V124.188C90.2365 125.388 90.5605 126.348 91.2085 127.068C91.8805 127.764 92.7205 128.112 93.7285 128.112ZM119.123 128.832H118.943C118.799 129.336 118.571 129.816 118.259 130.272C117.947 130.704 117.563 131.088 117.107 131.424C116.675 131.736 116.171 131.976 115.595 132.144C115.043 132.336 114.467 132.432 113.867 132.432C111.467 132.432 109.655 131.592 108.431 129.912C107.207 128.208 106.595 125.748 106.595 122.532C106.595 119.316 107.207 116.868 108.431 115.188C109.655 113.508 111.467 112.668 113.867 112.668C115.091 112.668 116.171 113.004 117.107 113.676C118.067 114.348 118.679 115.212 118.943 116.268H119.123V105.36H124.451V132H119.123V128.832ZM115.631 128.112C116.639 128.112 117.467 127.872 118.115 127.392C118.787 126.888 119.123 126.204 119.123 125.34V119.76C119.123 118.896 118.787 118.224 118.115 117.744C117.467 117.24 116.639 116.988 115.631 116.988C114.623 116.988 113.783 117.348 113.111 118.068C112.463 118.764 112.139 119.712 112.139 120.912V124.188C112.139 125.388 112.463 126.348 113.111 127.068C113.783 127.764 114.623 128.112 115.631 128.112ZM132.097 111.084C131.017 111.084 130.225 110.844 129.721 110.364C129.241 109.86 129.001 109.224 129.001 108.456V107.664C129.001 106.896 129.241 106.272 129.721 105.792C130.225 105.288 131.017 105.036 132.097 105.036C133.177 105.036 133.957 105.288 134.437 105.792C134.941 106.272 135.193 106.896 135.193 107.664V108.456C135.193 109.224 134.941 109.86 134.437 110.364C133.957 110.844 133.177 111.084 132.097 111.084ZM129.433 113.1H134.761V132H129.433V113.1ZM146.358 132C144.51 132 143.106 131.532 142.146 130.596C141.21 129.66 140.742 128.292 140.742 126.492V117.24H138.078V113.1H139.41C140.13 113.1 140.622 112.932 140.886 112.596C141.15 112.236 141.282 111.732 141.282 111.084V107.988H146.07V113.1H149.814V117.24H146.07V127.86H149.526V132H146.358Z" fill="#373737"/>
</svg>
