<svg width="21" height="20" viewBox="0 0 21 20" fill="none" xmlns="http://www.w3.org/2000/svg">
<path d="M11.9092 18.349C11.1774 19.2731 9.7757 19.2748 9.04192 18.3523L3.93434 11.9309C3.1663 10.9657 3.8461 9.53956 5.07924 9.52748L6.46693 9.51368L6.46817 4.84902C6.46822 4.6086 6.51565 4.37054 6.60773 4.14845C6.69982 3.92637 6.83477 3.72461 7.00487 3.55469C7.17496 3.38478 7.37687 3.25005 7.59906 3.1582C7.82124 3.06635 8.05935 3.01918 8.29977 3.01939L12.6581 3.02333C13.143 3.02389 13.6079 3.21693 13.9507 3.56003C14.2934 3.90313 14.4859 4.36825 14.486 4.85321L14.4865 9.51269L15.8419 9.51343C17.0804 9.51417 17.7713 10.9435 17.003 11.9144L11.9092 18.349ZM9.72418 17.81C9.81407 17.923 9.92833 18.0143 10.0584 18.0769C10.1885 18.1396 10.3311 18.172 10.4755 18.1719C10.6199 18.1717 10.7624 18.1389 10.8924 18.076C11.0223 18.013 11.1364 17.9215 11.226 17.8083L16.3198 11.3736C16.636 10.9736 16.3518 10.3852 15.8416 10.3847L14.0504 10.384C13.9932 10.384 13.9365 10.3727 13.8837 10.3508C13.8308 10.3289 13.7827 10.2969 13.7423 10.2564C13.7018 10.2159 13.6697 10.1679 13.6478 10.115C13.6259 10.0621 13.6146 10.0055 13.6146 9.94822L13.6149 4.85321C13.6148 4.59915 13.5139 4.35552 13.3343 4.17583C13.1547 3.99614 12.9111 3.89509 12.6571 3.89489L8.29878 3.89095C8.17286 3.89085 8.04816 3.91557 7.93179 3.96368C7.81542 4.0118 7.70968 4.08237 7.62059 4.17136C7.53151 4.26035 7.46083 4.36603 7.41259 4.48235C7.36436 4.59866 7.33951 4.72334 7.33948 4.84926L7.33825 9.94527C7.33827 10.0601 7.29297 10.1703 7.2122 10.2519C7.13143 10.3335 7.02171 10.3799 6.9069 10.381L5.08787 10.3988C4.58012 10.4037 4.30036 10.9911 4.61635 11.3884L9.72418 17.81Z" fill="#6F6F6F"/>
</svg>
